<svg xmlns="http://www.w3.org/2000/svg" width="491.436" height="490.584" viewBox="0 0 491.436 490.584">
  <g id="Grupo_170" data-name="Grupo 170" transform="translate(203.078 132.26)">
    <path id="Caminho_901" data-name="Caminho 901" d="M-176.781-104.463l61.323,37.453-2.959,64.056a.334.334,0,0,0,.661.084l12.11-58.147,48.583,29.672a.433.433,0,0,0,.515-.692l-46.507-41.419,10.788-51.808a1.289,1.289,0,0,0-1.167-1.548l-17.873-1.313a1.286,1.286,0,0,0-1.384,1.224l-1.992,43.091-46.161-41.113a1.465,1.465,0,0,0-2.129.186l-14.2,18.117A1.465,1.465,0,0,0-176.781-104.463Z" transform="translate(87.942 14.196)" fill="#393939"/>
    <path id="Caminho_902" data-name="Caminho 902" d="M-156.868-104.22a12.817,12.817,0,0,0,12.82-12.816,12.821,12.821,0,0,0-12.82-12.82,12.817,12.817,0,0,0-12.816,12.82A12.813,12.813,0,0,0-156.868-104.22Z" transform="translate(114.741 8.261)" fill="#393939"/>
    <path id="Caminho_903" data-name="Caminho 903" d="M-145.2-11.09l47.665-35.435L-80.908,7.919a.432.432,0,0,0,.843-.177L-87.336-54.11-44.87-85.681a1.292,1.292,0,0,0,.155-1.934l-12.492-12.851a1.29,1.29,0,0,0-1.85,0l-30.1,30.9-7.217-61.394a1.472,1.472,0,0,0-1.721-1.273l-22.646,4.121a1.466,1.466,0,0,0-1.14,1.872l20.987,68.723-44.746,45.93A.334.334,0,0,0-145.2-11.09Z" transform="translate(197.021 0)" fill="#393939"/>
    <path id="Caminho_904" data-name="Caminho 904" d="M-110.2-108.594a12.816,12.816,0,0,0-1.074-18.094,12.816,12.816,0,0,0-18.094,1.073A12.816,12.816,0,0,0-128.3-107.52,12.816,12.816,0,0,0-110.2-108.594Z" transform="translate(242.147 8.035)" fill="#393939"/>
    <path id="Caminho_905" data-name="Caminho 905" d="M-128.369-39.778a.334.334,0,0,0,.018.665l59.3,3.349L-91.187,16.683a.431.431,0,0,0,.759.4l34.064-52.136,52.833,2.985a1.288,1.288,0,0,0,1.357-1.384L-3.523-51.321A1.291,1.291,0,0,0-4.942-52.5l-42.909,4.423,33.811-51.75a1.464,1.464,0,0,0-.5-2.076l-20.024-11.356a1.471,1.471,0,0,0-2.076.705l-27.938,66.2Z" transform="translate(255.67 64.616)" fill="#393939"/>
    <path id="Caminho_906" data-name="Caminho 906" d="M-104.981-91.627A12.823,12.823,0,0,0-90.4-80.852,12.817,12.817,0,0,0-79.63-95.433,12.813,12.813,0,0,0-94.206-106.2,12.819,12.819,0,0,0-104.981-91.627Z" transform="translate(336.568 89.037)" fill="#393939"/>
    <path id="Caminho_907" data-name="Caminho 907" d="M12.756-53.1,4.967-74.755a1.469,1.469,0,0,0-2.036-.821L-61.4-43.552l-52.678-36.57a.334.334,0,0,0-.421.515l42.807,41.175-50.965,25.369a.433.433,0,0,0,.315.8l59.806-17.362L-24.391,7.063a1.287,1.287,0,0,0,1.93-.164L-11.841-7.54a1.291,1.291,0,0,0-.3-1.823l-35.435-24.6L11.785-51.2A1.461,1.461,0,0,0,12.756-53.1Z" transform="translate(275.513 178.926)" fill="#393939"/>
    <path id="Caminho_908" data-name="Caminho 908" d="M-79.85-68.937A12.815,12.815,0,0,0-97.519-64.9a12.814,12.814,0,0,0,4.037,17.669,12.819,12.819,0,0,0,17.673-4.037A12.821,12.821,0,0,0-79.85-68.937Z" transform="translate(355.948 210.836)" fill="#393939"/>
    <path id="Caminho_909" data-name="Caminho 909" d="M.963,13.254-69.6-.307-89.3-61.333a.334.334,0,0,0-.648.155l9.054,58.7L-136.8-13.224a.433.433,0,0,0-.235.83l58.081,22.477,8.065,52.3a1.292,1.292,0,0,0,1.637,1.042l17.2-5.039a1.286,1.286,0,0,0,.865-1.632L-64.437,15.7l57.65,22.313a1.471,1.471,0,0,0,1.93-.927L2.085,15.14A1.467,1.467,0,0,0,.963,13.254Z" transform="translate(225.975 242.912)" fill="#393939"/>
    <path id="Caminho_910" data-name="Caminho 910" d="M-109.1-39.168a12.815,12.815,0,0,0-7.506,16.5,12.815,12.815,0,0,0,16.5,7.506,12.815,12.815,0,0,0,7.506-16.5A12.815,12.815,0,0,0-109.1-39.168Z" transform="translate(294.294 317.053)" fill="#393939"/>
    <path id="Caminho_911" data-name="Caminho 911" d="M-113.5,7.936-87.255-50.57a.332.332,0,0,0-.581-.319l-32.6,49.652-34.312-45.425a.433.433,0,0,0-.732.457L-127.4,9.387l-29.038,44.24a1.29,1.29,0,0,0,.519,1.868l16.147,7.781a1.29,1.29,0,0,0,1.734-.634l17.655-39.356L-92.52,78.464a1.468,1.468,0,0,0,2.049.6l19.856-11.645a1.469,1.469,0,0,0,.426-2.151Z" transform="translate(159.514 279.056)" fill="#393939"/>
    <path id="Caminho_912" data-name="Caminho 912" d="M-133.857-26.8a12.816,12.816,0,0,0-16.626,7.222,12.821,12.821,0,0,0,7.226,16.626,12.821,12.821,0,0,0,16.626-7.226A12.815,12.815,0,0,0-133.857-26.8Z" transform="translate(177.637 359.288)" fill="#393939"/>
    <path id="Caminho_913" data-name="Caminho 913" d="M-66.891-22.956l-56.63,17.917,2.08-56.887a.433.433,0,0,0-.856-.111L-135.636-1.2l-50.451,15.961a1.293,1.293,0,0,0-.781,1.779l7.608,16.227a1.284,1.284,0,0,0,1.743.6L-138.972,14l-13.237,60.378A1.467,1.467,0,0,0-151,76.149l22.748,3.509a1.467,1.467,0,0,0,1.69-1.4l2.626-71.81,57.3-28.79A.333.333,0,0,0-66.891-22.956Z" transform="translate(55.283 240.121)" fill="#393939"/>
    <circle id="Elipse_31" data-name="Elipse 31" cx="12.818" cy="12.818" r="12.818" transform="translate(-123.112 273.9)" fill="#393939"/>
    <path id="Caminho_914" data-name="Caminho 914" d="M-73.871-15.17a.333.333,0,0,0,.2-.634l-55.1-22.167,37.768-42.594a.433.433,0,0,0-.59-.63l-48.969,38.482L-189.66-62.457a1.286,1.286,0,0,0-1.73.874l-4.445,17.363a1.292,1.292,0,0,0,.963,1.579l42.067,9.551L-201.411,5.1a1.471,1.471,0,0,0-.186,2.134L-186.266,24.4a1.469,1.469,0,0,0,2.191,0L-136.4-29.369Z" transform="translate(3.805 175.128)" fill="#393939"/>
    <path id="Caminho_915" data-name="Caminho 915" d="M-177.643-56.38A12.815,12.815,0,0,0-188-71.254,12.815,12.815,0,0,0-202.875-60.9a12.815,12.815,0,0,0,10.358,14.874A12.812,12.812,0,0,0-177.643-56.38Z" transform="translate(0 208.921)" fill="#393939"/>
    <path id="Caminho_916" data-name="Caminho 916" d="M-198.149-41.547l71.371-8.326L-89.609,2.383a.332.332,0,0,0,.568-.342L-115.36-51.2l56.546-6.6a.432.432,0,0,0-.022-.861L-120.989-62.6l-23.449-47.439a1.292,1.292,0,0,0-1.876-.5L-161.2-100.55a1.293,1.293,0,0,0-.328,1.819l25,35.151-61.7-3.9a1.466,1.466,0,0,0-1.557,1.464L-199.786-43A1.466,1.466,0,0,0-198.149-41.547Z" transform="translate(11.31 73.908)" fill="#393939"/>
    <path id="Caminho_917" data-name="Caminho 917" d="M-175.868-84.909a12.817,12.817,0,0,0,2.187-17.992,12.813,12.813,0,0,0-17.992-2.187A12.817,12.817,0,0,0-193.864-87.1,12.822,12.822,0,0,0-175.868-84.909Z" transform="translate(22.294 83.987)" fill="#393939"/>
  </g>
</svg>
